<?xml version="1.0" standalone="no"?>
<!DOCTYPE svg PUBLIC "-//W3C//DTD SVG 20010904//EN"
 "http://www.w3.org/TR/2001/REC-SVG-20010904/DTD/svg10.dtd">
<svg version="1.0" xmlns="http://www.w3.org/2000/svg"
 width="512.000000pt" height="512.000000pt" viewBox="0 0 512.000000 512.000000"
 preserveAspectRatio="xMidYMid meet">
<metadata>
Created by potrace 1.16, written by Peter Selinger 2001-2019
</metadata>
<g transform="translate(0.000000,512.000000) scale(0.100000,-0.100000)"
fill="#000000" stroke="none">
<path d="M940 5106 c-120 -40 -210 -132 -249 -255 -7 -23 -11 -216 -11 -576
l0 -542 23 -34 c44 -65 33 -64 557 -67 320 -2 487 0 512 8 25 7 40 19 50 40
l13 30 720 0 720 0 13 -29 c8 -18 25 -34 44 -40 20 -7 187 -11 489 -11 l459 0
0 -1625 c0 -1118 -3 -1640 -11 -1674 -14 -67 -57 -123 -116 -152 l-48 -24
-1550 0 -1550 0 -48 24 c-59 29 -102 85 -116 152 -8 34 -11 531 -11 1582 -1
1672 4 1556 -60 1578 -27 10 -36 9 -58 -8 l-27 -20 -3 -1574 c-2 -1216 0
-1584 10 -1619 32 -120 128 -218 253 -257 53 -17 3163 -19 3216 -2 125 40 217
131 256 254 17 54 19 3405 2 3422 -8 8 -8 17 0 31 15 29 15 1085 0 1133 -40
125 -131 217 -254 256 -56 18 -3172 17 -3225 -1z"/>
<path d="M1158 3526 c-65 -18 -116 -60 -144 -120 -21 -46 -24 -65 -24 -186 0
-169 9 -202 69 -260 61 -60 99 -70 266 -70 167 0 205 10 266 70 60 58 69 91
69 260 0 122 -3 140 -24 187 -30 63 -86 107 -157 122 -67 15 -263 13 -321 -3z
m331 -172 c19 -24 21 -40 21 -144 0 -169 4 -165 -185 -165 -189 0 -185 -4
-185 165 0 104 2 120 21 144 20 26 21 26 164 26 143 0 144 0 164 -26z"/>
<path d="M1978 3526 c-65 -18 -116 -60 -144 -120 -21 -46 -24 -65 -24 -186 0
-169 9 -202 69 -260 61 -60 99 -70 266 -70 167 0 205 10 266 70 60 58 69 91
69 260 0 122 -3 140 -24 187 -30 63 -86 107 -157 122 -67 15 -263 13 -321 -3z
m331 -172 c19 -24 21 -40 21 -144 0 -169 4 -165 -185 -165 -189 0 -185 -4
-185 165 0 104 2 120 21 144 20 26 21 26 164 26 143 0 144 0 164 -26z"/>
<path d="M2798 3526 c-65 -18 -116 -60 -144 -120 -21 -46 -24 -65 -24 -186 0
-169 9 -202 69 -260 61 -60 99 -70 266 -70 167 0 205 10 266 70 60 58 69 91
69 260 0 122 -3 140 -24 187 -30 63 -86 107 -157 122 -67 15 -263 13 -321 -3z
m331 -172 c19 -24 21 -40 21 -144 0 -169 4 -165 -185 -165 -189 0 -185 -4
-185 165 0 104 2 120 21 144 20 26 21 26 164 26 143 0 144 0 164 -26z"/>
<path d="M3618 3526 c-65 -18 -116 -60 -144 -120 -21 -46 -24 -65 -24 -186 0
-169 9 -202 69 -260 61 -60 99 -70 266 -70 158 0 199 9 256 59 68 58 79 92 79
266 0 137 -2 155 -22 195 -29 57 -93 105 -158 119 -68 15 -263 13 -322 -3z"/>
<path d="M1125 2721 c-51 -23 -93 -65 -116 -116 -15 -33 -19 -66 -19 -182 0
-78 5 -154 11 -170 21 -56 61 -102 112 -128 48 -24 60 -25 212 -25 152 0 164
1 212 25 51 26 91 72 112 128 6 16 11 92 11 170 0 157 -11 196 -66 251 -57 57
-93 66 -269 66 -134 0 -166 -3 -200 -19z m360 -156 c24 -23 25 -30 25 -143 0
-106 -2 -122 -21 -146 -20 -26 -21 -26 -164 -26 -143 0 -144 0 -164 26 -19 24
-21 40 -21 146 0 113 1 120 25 143 23 24 29 25 160 25 131 0 137 -1 160 -25z"/>
<path d="M1945 2721 c-51 -23 -93 -65 -116 -116 -15 -33 -19 -66 -19 -182 0
-78 5 -154 11 -170 21 -56 61 -102 112 -128 48 -24 60 -25 212 -25 152 0 164
1 212 25 51 26 91 72 112 128 6 16 11 92 11 170 0 157 -11 196 -66 251 -57 57
-93 66 -269 66 -134 0 -166 -3 -200 -19z m360 -156 c24 -23 25 -30 25 -143 0
-106 -2 -122 -21 -146 -20 -26 -21 -26 -164 -26 -143 0 -144 0 -164 26 -19 24
-21 40 -21 146 0 113 1 120 25 143 23 24 29 25 160 25 131 0 137 -1 160 -25z"/>
<path d="M2765 2721 c-22 -10 -53 -31 -69 -47 -55 -55 -66 -94 -66 -251 0 -78
5 -154 11 -170 21 -56 61 -102 112 -128 48 -24 60 -25 212 -25 152 0 164 1
212 25 51 26 91 72 112 128 6 16 11 92 11 170 0 157 -11 196 -66 251 -57 57
-93 66 -269 66 -134 0 -166 -3 -200 -19z m360 -156 c24 -23 25 -30 25 -143 0
-106 -2 -122 -21 -146 -20 -26 -21 -26 -164 -26 -143 0 -144 0 -164 26 -19 24
-21 40 -21 146 0 113 1 120 25 143 23 24 29 25 160 25 131 0 137 -1 160 -25z"/>
<path d="M3585 2721 c-22 -10 -53 -31 -69 -47 -55 -55 -66 -94 -66 -251 0 -78
5 -154 11 -170 21 -56 61 -102 112 -128 48 -24 60 -25 213 -25 158 0 163 1
215 28 36 18 64 43 84 72 30 44 30 47 33 199 4 173 -6 217 -61 273 -59 59 -94
68 -272 68 -134 0 -166 -3 -200 -19z"/>
<path d="M3636 1950 c-67 -12 -125 -56 -158 -120 l-28 -52 0 -547 c0 -609 -2
-589 71 -658 58 -55 91 -63 263 -63 85 0 167 5 183 11 56 21 102 61 128 112
l25 51 0 550 c0 536 -1 551 -21 593 -22 45 -76 95 -125 114 -37 14 -274 21
-338 9z"/>
<path d="M1146 1936 c-54 -20 -85 -45 -121 -95 -30 -42 -30 -45 -33 -193 -3
-123 -1 -158 13 -194 22 -58 58 -100 109 -127 38 -20 55 -22 211 -22 155 0
174 2 210 22 51 27 79 57 104 113 17 38 21 66 21 180 0 155 -7 190 -51 243
-58 70 -93 81 -269 84 -116 2 -165 -1 -194 -11z m323 -151 c16 -8 31 -22 35
-30 11 -29 7 -233 -5 -259 -7 -14 -25 -30 -42 -36 -39 -13 -225 -13 -264 0
-44 16 -53 47 -53 174 0 158 8 165 183 166 84 0 126 -4 146 -15z"/>
<path d="M1966 1936 c-54 -20 -85 -45 -121 -95 -30 -42 -30 -45 -33 -193 -3
-123 -1 -158 13 -194 22 -58 58 -100 109 -127 38 -20 55 -22 211 -22 155 0
174 2 210 22 51 27 79 57 104 113 17 38 21 66 21 180 0 155 -7 190 -51 243
-58 70 -93 81 -269 84 -116 2 -165 -1 -194 -11z m323 -151 c16 -8 31 -22 35
-30 11 -29 7 -233 -5 -259 -7 -14 -25 -30 -42 -36 -39 -13 -225 -13 -264 0
-44 16 -53 47 -53 174 0 158 8 165 183 166 84 0 126 -4 146 -15z"/>
<path d="M2786 1936 c-54 -20 -85 -45 -121 -95 -30 -42 -30 -45 -33 -193 -3
-123 -1 -158 13 -194 22 -58 58 -100 109 -127 38 -20 55 -22 211 -22 155 0
174 2 210 22 51 27 79 57 104 113 17 38 21 66 21 180 0 155 -7 190 -51 243
-58 70 -93 81 -269 84 -116 2 -165 -1 -194 -11z m323 -151 c16 -8 31 -22 35
-30 11 -29 7 -233 -5 -259 -7 -14 -25 -30 -42 -36 -39 -13 -225 -13 -264 0
-44 16 -53 47 -53 174 0 158 8 165 183 166 84 0 126 -4 146 -15z"/>
<path d="M1176 1149 c-66 -11 -125 -55 -158 -119 -27 -50 -28 -58 -28 -199 0
-164 10 -200 71 -258 59 -55 91 -63 264 -63 173 0 205 8 264 63 61 58 71 94
71 258 0 141 -1 149 -27 199 -37 68 -91 107 -168 120 -70 12 -219 11 -289 -1z
m305 -168 c22 -18 24 -28 27 -122 5 -129 -7 -173 -50 -188 -17 -6 -77 -11
-133 -11 -56 0 -116 5 -133 11 -43 15 -55 59 -50 188 4 140 5 141 183 141 116
0 136 -2 156 -19z"/>
<path d="M1996 1149 c-66 -11 -125 -55 -158 -119 -27 -50 -28 -58 -28 -199 0
-164 10 -200 71 -258 59 -55 91 -63 264 -63 173 0 205 8 264 63 61 58 71 94
71 258 0 141 -1 149 -27 199 -37 68 -91 107 -168 120 -70 12 -219 11 -289 -1z
m313 -175 c19 -24 21 -40 21 -146 0 -113 -1 -120 -25 -143 -23 -24 -29 -25
-160 -25 -131 0 -137 1 -160 25 -24 23 -25 30 -25 143 0 106 2 122 21 146 20
26 21 26 164 26 143 0 144 0 164 -26z"/>
<path d="M2816 1149 c-66 -11 -125 -55 -158 -119 -27 -50 -28 -58 -28 -199 0
-164 10 -200 71 -258 59 -55 91 -63 264 -63 173 0 205 8 264 63 61 58 71 94
71 258 0 141 -1 149 -27 199 -37 68 -91 107 -168 120 -70 12 -219 11 -289 -1z"/>
</g>
</svg>
