<?xml version="1.0" standalone="no"?>
<!DOCTYPE svg PUBLIC "-//W3C//DTD SVG 20010904//EN"
 "http://www.w3.org/TR/2001/REC-SVG-20010904/DTD/svg10.dtd">
<svg version="1.0" xmlns="http://www.w3.org/2000/svg"
 width="91.000000pt" height="74.000000pt" viewBox="0 0 91.000000 74.000000"
 preserveAspectRatio="xMidYMid meet">

<g transform="translate(0.000000,74.000000) scale(0.100000,-0.100000)"
fill="#000000" stroke="none">
<path d="M10 370 l0 -370 450 0 450 0 0 370 0 370 -450 0 -450 0 0 -370z m289
91 c23 -15 -3 -49 -34 -44 -31 7 -55 -12 -55 -43 0 -34 25 -54 60 -47 22 4 31
1 36 -12 9 -23 -12 -35 -64 -35 -32 0 -49 6 -67 25 -59 58 -12 165 72 165 21
0 44 -4 52 -9z m160 -33 c11 -24 29 -65 41 -93 l23 -50 15 93 c14 91 14 92 43
92 25 0 30 -5 39 -42 16 -61 28 -95 29 -80 1 8 8 38 17 68 14 49 18 54 43 54
28 0 29 -2 40 -75 16 -109 15 -115 -14 -115 -19 0 -25 5 -25 23 0 42 -17 52
-24 13 -6 -33 -10 -36 -42 -36 -30 0 -35 4 -40 30 -7 34 -24 30 -24 -6 0 -23
-3 -24 -65 -24 -37 0 -65 4 -65 10 0 6 -16 10 -35 10 -19 0 -35 -4 -35 -10 0
-5 -13 -10 -30 -10 -16 0 -30 2 -30 5 0 2 13 37 28 77 16 40 32 81 35 91 4 10
17 17 32 17 21 0 30 -8 44 -42z"/>
<path d="M407 371 c-3 -14 0 -21 9 -21 16 0 18 9 5 28 -6 10 -10 9 -14 -7z"/>
</g>
</svg>
