<?xml version="1.0" standalone="no"?>
<!DOCTYPE svg PUBLIC "-//W3C//DTD SVG 20010904//EN"
 "http://www.w3.org/TR/2001/REC-SVG-20010904/DTD/svg10.dtd">
<svg version="1.0" xmlns="http://www.w3.org/2000/svg"
 width="301.000000pt" height="167.000000pt" viewBox="0 0 301.000000 167.000000"
 preserveAspectRatio="xMidYMid meet">
<metadata>
Created by potrace 1.16, written by Peter Selinger 2001-2019
</metadata>
<g transform="translate(0.000000,167.000000) scale(0.100000,-0.100000)"
fill="#000000" stroke="none">
<path d="M922 1080 c-150 -32 -229 -190 -171 -344 23 -63 81 -120 138 -136 60
-17 181 -12 227 9 72 33 84 58 84 177 l0 104 -120 0 -120 0 0 -55 0 -55 65 0
c62 0 65 -1 65 -24 0 -36 -35 -56 -98 -56 -48 0 -58 4 -86 33 -39 38 -51 90
-36 148 23 86 99 118 186 80 l48 -21 37 36 38 37 -22 17 c-63 49 -151 68 -235
50z"/>
<path d="M130 835 l0 -235 180 0 180 0 0 139 0 139 29 25 29 24 -51 7 c-29 3
-73 6 -99 6 l-48 0 0 65 0 65 -110 0 -110 0 0 -235z"/>
<path d="M1260 835 l0 -235 65 0 64 0 3 235 3 235 -67 0 -68 0 0 -235z"/>
<path d="M1480 836 l0 -236 65 0 64 0 3 63 3 62 92 5 c101 6 129 19 171 80 16
25 22 47 22 90 0 63 -22 106 -73 144 -26 19 -45 21 -188 24 l-159 3 0 -235z
m270 104 c24 -24 26 -57 3 -82 -12 -14 -31 -18 -80 -18 l-63 0 0 60 0 60 60 0
c47 0 64 -4 80 -20z"/>
<path d="M1958 835 l3 -235 64 0 65 0 0 90 0 90 85 0 85 0 0 -90 0 -90 65 0
65 0 0 235 0 235 -65 0 -65 0 0 -90 0 -90 -85 0 -85 0 0 90 0 90 -67 0 -68 0
3 -235z"/>
<path d="M2446 1058 c5 -7 45 -71 91 -141 l83 -128 0 -94 0 -95 65 0 65 0 0
90 0 91 88 132 c49 72 92 138 96 145 5 9 -11 12 -68 12 l-75 0 -52 -81 -52
-81 -46 81 -46 80 -78 1 c-60 0 -76 -3 -71 -12z"/>
</g>
</svg>
