<?xml version="1.0" standalone="no"?>
<!DOCTYPE svg PUBLIC "-//W3C//DTD SVG 20010904//EN"
 "http://www.w3.org/TR/2001/REC-SVG-20010904/DTD/svg10.dtd">
<svg version="1.0" xmlns="http://www.w3.org/2000/svg"
 width="78.000000pt" height="75.000000pt" viewBox="0 0 78.000000 75.000000"
 preserveAspectRatio="xMidYMid meet">

<g transform="translate(0.000000,75.000000) scale(0.100000,-0.100000)"
fill="#000000" stroke="none">
<path d="M135 628 c-31 -17 -45 -39 -45 -72 1 -38 18 -62 55 -76 39 -15 42 -6
12 37 -36 50 -24 73 41 73 38 1 50 5 65 25 l18 25 -63 0 c-35 0 -72 -6 -83
-12z"/>
<path d="M295 628 c-30 -16 -45 -39 -45 -70 0 -21 5 -28 20 -28 13 0 20 7 20
18 0 29 21 42 65 42 31 0 47 6 65 25 l23 25 -64 0 c-35 0 -73 -6 -84 -12z"/>
<path d="M448 623 c-41 -25 -54 -93 -18 -93 13 0 20 7 20 18 0 33 22 42 96 42
53 0 75 -4 85 -16 8 -10 10 -20 3 -28 -35 -48 -46 -67 -42 -72 9 -8 60 16 74
34 27 36 9 102 -33 121 -37 17 -153 13 -185 -6z"/>
<path d="M157 573 c-13 -13 -7 -33 25 -78 23 -32 39 -45 56 -45 l24 0 -31 53
c-30 53 -62 83 -74 70z"/>
<path d="M308 553 c-2 -23 -8 -29 -35 -31 -38 -4 -41 -12 -14 -36 34 -31 101
16 101 71 0 18 -6 23 -24 23 -19 0 -25 -6 -28 -27z"/>
<path d="M475 565 c-3 -8 -7 -22 -10 -30 -3 -11 -19 -15 -52 -15 -40 -1 -51
-5 -67 -27 l-19 -25 73 4 c64 3 75 7 96 31 30 36 32 77 4 77 -11 0 -23 -7 -25
-15z"/>
<path d="M582 563 c-12 -10 -34 -41 -50 -69 l-29 -50 28 4 c20 3 36 16 51 41
12 20 28 42 35 49 12 13 8 42 -7 42 -4 0 -17 -8 -28 -17z"/>
<path d="M668 494 c-24 -47 -25 -53 -10 -59 22 -8 52 28 52 64 0 50 -15 48
-42 -5z"/>
<path d="M67 533 c-10 -10 -8 -52 3 -74 6 -11 21 -19 36 -19 l25 0 -18 31
c-36 64 -40 69 -46 62z"/>
<path d="M505 489 c-4 -6 -5 -12 -2 -15 2 -3 7 2 10 11 7 17 1 20 -8 4z"/>
<path d="M42 408 c-16 -16 -15 -33 3 -48 11 -9 19 -10 26 -3 8 8 6 11 -7 10
-13 -1 -19 5 -19 18 0 13 6 20 17 19 10 -1 15 2 12 7 -7 12 -18 11 -32 -3z"/>
<path d="M101 383 c1 -21 3 -30 6 -20 6 22 19 22 32 0 7 -14 9 -10 8 17 -2 28
-6 36 -24 38 -21 3 -23 -1 -22 -35z m39 17 c0 -5 -7 -10 -15 -10 -8 0 -15 5
-15 10 0 6 7 10 15 10 8 0 15 -4 15 -10z"/>
<path d="M173 388 c1 -25 7 -33 22 -33 15 0 20 7 21 30 1 28 1 28 -3 3 -6 -37
-30 -36 -37 2 -6 30 -6 30 -3 -2z"/>
<path d="M241 383 c1 -21 3 -31 6 -22 2 10 13 19 25 22 25 7 19 31 -10 35 -19
3 -22 -1 -21 -35z m39 17 c0 -5 -7 -10 -15 -10 -8 0 -15 5 -15 10 0 6 7 10 15
10 8 0 15 -4 15 -10z"/>
<path d="M309 404 c-14 -17 -3 -45 22 -52 8 -2 5 2 -5 10 -12 10 -17 21 -13
32 9 24 30 15 38 -15 l7 -24 1 26 c1 16 -5 29 -15 33 -21 8 -20 8 -35 -10z"/>
<path d="M412 388 c-2 -34 1 -38 21 -37 15 1 17 3 5 6 -10 2 -18 17 -21 36 -4
31 -4 31 -5 -5z"/>
<path d="M496 412 c-3 -5 -9 -20 -15 -33 -8 -22 -6 -24 19 -24 26 0 27 2 17
30 -12 37 -14 39 -21 27z m14 -32 c0 -5 -4 -10 -10 -10 -5 0 -10 5 -10 10 0 6
5 10 10 10 6 0 10 -4 10 -10z"/>
<path d="M554 406 c-15 -12 -17 -19 -8 -32 6 -10 17 -19 25 -21 8 -3 7 0 -3 7
-31 19 -20 47 15 41 5 -1 6 3 2 9 -8 13 -7 13 -31 -4z"/>
<path d="M620 405 c-10 -12 -9 -16 6 -22 11 -3 22 -11 26 -17 5 -8 8 -7 8 1 0
7 -8 17 -17 22 -16 9 -16 12 -3 21 8 5 10 10 4 10 -6 0 -17 -7 -24 -15z"/>
<path d="M691 397 c-14 -36 -15 -34 14 -39 28 -6 31 5 10 42 l-13 25 -11 -28z
m19 -12 c0 -8 -4 -15 -10 -15 -5 0 -7 7 -4 15 4 8 8 15 10 15 2 0 4 -7 4 -15z"/>
<path d="M170 285 c0 -2 9 -19 20 -37 11 -18 20 -26 20 -18 0 8 3 25 6 38 5
19 2 22 -20 22 -14 0 -26 -2 -26 -5z"/>
<path d="M236 268 c-9 -12 -16 -33 -16 -47 0 -27 60 -140 86 -162 22 -18 136
-18 158 0 28 24 86 130 86 159 0 35 -26 72 -50 72 -29 0 -34 -19 -11 -41 12
-11 21 -22 21 -25 0 -16 -93 -174 -102 -174 -6 0 -4 8 4 18 22 25 29 50 22 78
-9 35 -23 29 -42 -16 -13 -34 -19 -41 -40 -38 -19 2 -33 18 -58 63 -19 33 -34
63 -34 67 0 4 9 16 21 27 12 11 18 24 14 30 -11 18 -43 12 -59 -11z"/>
<path d="M308 265 c3 -21 0 -27 -17 -32 -24 -6 -26 -13 -8 -37 13 -17 15 -17
41 5 16 15 28 36 29 54 2 26 -2 30 -24 33 -24 3 -26 0 -21 -23z"/>
<path d="M420 256 c0 -26 7 -40 27 -56 l28 -21 9 20 c7 16 5 25 -9 35 -12 8
-16 20 -12 35 4 17 1 21 -19 21 -21 0 -24 -5 -24 -34z"/>
<path d="M551 278 c0 -7 4 -22 8 -32 7 -18 8 -18 24 5 23 32 21 39 -8 39 -14
0 -25 -6 -24 -12z"/>
<path d="M367 208 c-23 -40 -31 -66 -28 -95 2 -19 31 -15 37 5 3 9 15 34 25
54 16 29 18 42 9 58 -6 11 -12 20 -14 20 -2 0 -15 -19 -29 -42z"/>
<path d="M356 223 c-6 -14 -5 -15 5 -6 7 7 10 15 7 18 -3 3 -9 -2 -12 -12z"/>
</g>
</svg>
