<?xml version="1.0" standalone="no"?>
<!DOCTYPE svg PUBLIC "-//W3C//DTD SVG 20010904//EN"
 "http://www.w3.org/TR/2001/REC-SVG-20010904/DTD/svg10.dtd">
<svg version="1.0" xmlns="http://www.w3.org/2000/svg"
 width="300.000000pt" height="168.000000pt" viewBox="0 0 300.000000 168.000000"
 preserveAspectRatio="xMidYMid meet">
<metadata>
Created by potrace 1.16, written by Peter Selinger 2001-2019
</metadata>
<g transform="translate(0.000000,168.000000) scale(0.100000,-0.100000)"
fill="#000000" stroke="none">
<path d="M1086 1579 c-235 -15 -430 -30 -432 -32 -2 -2 -7 -74 -11 -160 -4
-116 -3 -160 6 -171 10 -11 9 -130 0 -551 -9 -367 -10 -542 -3 -553 6 -9 21
-24 35 -34 23 -17 47 -18 494 -7 467 12 470 12 495 34 25 23 32 23 425 35 220
7 420 15 445 19 l45 6 -4 540 c-2 297 -7 547 -12 557 -8 15 -27 16 -183 11
l-175 -6 -83 78 -83 77 -75 -6 c-41 -3 -116 -8 -166 -12 l-92 -7 -7 74 c-6 57
-13 80 -34 106 -32 41 -4 41 -585 2z m-6 -49 c0 -5 -7 -10 -16 -10 -8 0 -12 5
-9 10 3 6 10 10 16 10 5 0 9 -4 9 -10z m-167 -61 c77 -83 -20 -210 -126 -165
-27 11 -42 26 -53 51 -16 38 -9 98 8 73 7 -9 8 -7 5 10 -3 12 -2 20 3 17 4 -2
15 4 25 15 11 13 32 20 54 21 30 0 33 2 16 10 -16 7 -14 8 10 4 17 -3 42 -19
58 -36z m668 -142 c-8 -8 -11 1 -11 29 0 53 14 67 18 19 2 -21 -1 -42 -7 -48z
m8 -384 c-2 -449 -10 -655 -26 -660 -9 -3 -11 83 -7 364 6 453 13 653 25 653
5 0 8 -153 8 -357z m-147 -83 c-2 -151 -7 -278 -11 -282 -12 -13 -584 -37
-605 -26 -10 6 -29 22 -42 37 -23 26 -23 29 -24 269 0 185 3 244 13 247 15 6
567 33 627 31 l45 -1 -3 -275z m866 -23 l3 -47 -59 0 c-53 0 -60 2 -66 23 -15
57 -10 66 47 70 73 5 72 5 75 -46z m132 8 l0 -45 -60 0 -60 0 0 45 0 45 60 0
60 0 0 -45z m-410 -15 l0 -50 -55 0 c-54 0 -55 0 -55 29 0 16 -3 36 -6 45 -5
12 5 16 53 19 32 2 59 4 61 5 1 1 2 -20 2 -48z m140 21 c0 -16 3 -36 6 -45 5
-14 -4 -16 -65 -16 l-71 0 0 45 0 45 65 0 65 0 0 -29z m-266 -12 c11 -58 10
-59 -49 -59 l-55 0 0 45 0 45 49 0 c46 0 49 -1 55 -31z m536 -94 l0 -45 -60 0
-60 0 0 45 0 45 60 0 60 0 0 -45z m-260 -10 l0 -45 -65 0 -65 0 0 45 0 45 65
0 65 0 0 -45z m130 0 l0 -45 -60 0 -60 0 0 45 0 45 60 0 60 0 0 -45z m-400
-10 l0 -45 -55 0 -55 0 0 45 0 45 55 0 55 0 0 -45z m130 6 c0 -45 -10 -51 -76
-51 l-44 0 0 45 0 45 60 0 60 0 0 -39z m-12 -194 l3 -47 -60 0 -61 0 0 44 0
45 43 4 c71 6 72 6 75 -46z m-128 -1 c0 -48 -11 -56 -77 -56 -33 0 -33 0 -33
50 l0 50 55 0 55 0 0 -44z m506 -15 c-4 -6 -14 -11 -22 -11 -9 0 -12 -5 -8
-12 4 -7 3 -8 -4 -4 -16 9 -15 39 0 54 10 10 15 9 26 -2 8 -8 11 -19 8 -25z
m-838 -342 c-18 -12 -24 57 -6 78 11 14 13 10 16 -27 2 -28 -1 -46 -10 -51z"/>
<path d="M836 1482 c-38 -3 -38 -4 -17 -19 30 -21 25 -67 -7 -71 -13 -2 -30 2
-38 8 -11 10 -14 9 -14 -4 0 -10 5 -26 10 -37 6 -10 8 -19 5 -19 -3 0 -12 15
-20 33 -9 19 -14 25 -15 14 0 -10 11 -29 25 -42 55 -56 155 -18 155 59 0 51
-34 83 -84 78z"/>
<path d="M1146 1083 c-11 -11 -6 -23 9 -23 8 0 15 4 15 9 0 13 -16 22 -24 14z"/>
<path d="M1050 1070 c0 -5 5 -10 10 -10 6 0 10 5 10 10 0 6 -4 10 -10 10 -5 0
-10 -4 -10 -10z"/>
<path d="M1095 1028 c-121 -4 -226 -11 -234 -13 -11 -5 -13 -35 -7 -178 4 -94
11 -175 14 -178 4 -3 117 -1 252 5 l245 11 0 180 0 180 -25 1 c-14 1 -124 -3
-245 -8z"/>
<path d="M857 606 c-7 -18 1 -26 25 -26 13 0 18 6 16 17 -4 22 -34 29 -41 9z"/>
<path d="M1323 593 c9 -2 25 -2 35 0 9 3 1 5 -18 5 -19 0 -27 -2 -17 -5z"/>
</g>
</svg>
