<?xml version="1.0" standalone="no"?>
<!DOCTYPE svg PUBLIC "-//W3C//DTD SVG 20010904//EN"
 "http://www.w3.org/TR/2001/REC-SVG-20010904/DTD/svg10.dtd">
<svg version="1.0" xmlns="http://www.w3.org/2000/svg"
 width="86.000000pt" height="53.000000pt" viewBox="0 0 86.000000 53.000000"
 preserveAspectRatio="xMidYMid meet">

<g transform="translate(0.000000,53.000000) scale(0.100000,-0.100000)"
fill="#000000" stroke="none">
<path d="M175 379 c-45 -39 -65 -78 -65 -122 0 -54 23 -67 118 -67 87 0 105
-9 76 -41 -15 -16 -31 -19 -124 -19 l-107 0 -16 -40 -15 -40 131 0 c124 0 135
2 169 25 36 24 78 95 78 131 0 11 -7 30 -16 42 -14 20 -24 22 -100 22 -66 0
-86 3 -90 15 -14 35 14 45 127 45 l109 0 15 36 c8 20 15 38 15 40 0 2 -61 4
-135 4 l-134 0 -36 -31z"/>
<path d="M541 379 c-6 -18 -11 -36 -11 -40 0 -5 47 -9 105 -9 94 0 105 -2 105
-18 0 -33 -22 -42 -97 -42 -116 0 -145 -22 -191 -142 l-30 -78 47 0 47 0 18
55 c22 70 43 85 124 85 80 0 122 19 156 71 32 48 36 101 11 129 -16 18 -31 20
-146 20 l-127 0 -11 -31z"/>
</g>
</svg>
